# xmcd CD database file
#
# Track frame offsets:
#	150
#	13594
#	29837
#	47096
#	60150
#	71320
#	82471
#	96055
#	109576
#	123006
#	135816
#	148944
#	162347
#	175224
#	187814
#	202101
#	215783
#	231316
#	244608
#	258808
#	272607
#	286511
#	299802
#
# Disc length: 4180 seconds
#
# Revision: 1
# Processed by: cddbd v1.5.2PL0 Copyright (c) Steve Scherf et al.
# Submitted via: CDex 1.51
#
DISCID=50105217
DTITLE=Val McDermid - Ein kalter Strom
DYEAR=2007
DGENRE=Hörbuch
TTITLE0=102 Ein kalter Strom
TTITLE1=103 Ein kalter Strom
TTITLE2=104 Ein kalter Strom
TTITLE3=105 Ein kalter Strom
TTITLE4=106 Ein kalter Strom
TTITLE5=107 Ein kalter Strom
TTITLE6=108 Ein kalter Strom
TTITLE7=109 Ein kalter Strom
TTITLE8=110 Ein kalter Strom
TTITLE9=111 Ein kalter Strom
TTITLE10=112 Ein kalter Strom
TTITLE11=113 Ein kalter Strom
TTITLE12=114 Ein kalter Strom
TTITLE13=115 Ein kalter Strom
TTITLE14=116 Ein kalter Strom
TTITLE15=117 Ein kalter Strom
TTITLE16=118 Ein kalter Strom
TTITLE17=119 Ein kalter Strom
TTITLE18=120 Ein kalter Strom
TTITLE19=121 Ein kalter Strom
TTITLE20=122 Ein kalter Strom
TTITLE21=123 Ein kalter Strom
TTITLE22=124 Ein kalter Strom
EXTD=gelesen von Elke Schützhold YEAR: 2007
EXTT0=
EXTT1=
EXTT2=
EXTT3=
EXTT4=
EXTT5=
EXTT6=
EXTT7=
EXTT8=
EXTT9=
EXTT10=
EXTT11=
EXTT12=
EXTT13=
EXTT14=
EXTT15=
EXTT16=
EXTT17=
EXTT18=
EXTT19=
EXTT20=
EXTT21=
EXTT22=
PLAYORDER=
